<svg xmlns="http://www.w3.org/2000/svg" viewBox="0 0 1024 1024" version="1.1"><path d="M921.9 991.8H172.8a23.6 23.6 0 1 1 0-46.8h749.1a23.6 23.6 0 0 1 0 46.8z" fill="#5586FF" p-id="594"></path><path d="M32 32m207.7 0l614.7 0q207.7 0 207.7 207.7l0 427.2q0 207.7-207.7 207.7l-614.7 0q-207.7 0-207.7-207.7l0-427.2q0-207.7 207.7-207.7Z" fill="#5FA0FF" p-id="595"></path><path d="M559.1 608.3a23.6 23.6 0 0 1-16.7-6.9l-147.7-147.7-98.4 98.4a23.6 23.6 0 0 1-33 0 24.6 24.6 0 0 1 0-33.5l117.1-117.1a23.6 23.6 0 0 1 33 0l147.7 147.7 240.7-241.2a23.6 23.6 0 0 1 33 0 22.6 22.6 0 0 1 0 33l-257.4 257.9a23.1 23.1 0 0 1-18.2 9.4z" fill="#D9EAFF" p-id="596"></path></svg>