<svg xmlns="http://www.w3.org/2000/svg" viewBox="0 0 1024 1024" version="1.1"><path d="M79.2 0m89.2 0l622.7 0q89.2 0 89.2 89.2l0 845.5q0 89.2-89.2 89.2l-622.7 0q-89.2 0-89.2-89.2l0-845.5q0-89.2 89.2-89.2Z" fill="#78DCFF" p-id="782"></path><path d="M168.4 66.8m25.8 0l81.9 0q25.8 0 25.8 25.8l0 838.7q0 25.8-25.8 25.8l-81.9 0q-25.8 0-25.8-25.8l0-838.7q0-25.8 25.8-25.8Z" fill="#50C1FF" p-id="783"></path><path d="M531.7 423.3l104.4-101.9 104.8 101.9h3.4a48.8 48.8 0 0 0 3.4-17.1V102.4c0-18.5-11.2-34.1-24.9-34.1H549.8c-13.7 0-24.9 15.6-24.9 34.1v305.2a48.8 48.8 0 0 0 3.4 17.1z" fill="#50C1FF" p-id="784"></path></svg>