<svg xmlns="http://www.w3.org/2000/svg" viewBox="0 0 1024 1024" version="1.1"><path d="M73.8 146.5m94.4 0l634 0q94.4 0 94.4 94.4l0 688.8q0 94.4-94.4 94.4l-634 0q-94.4 0-94.4-94.4l0-688.8q0-94.4 94.4-94.4Z" fill="#F99898" p-id="621"></path><path d="M658.8 66.8h-79.2a100.2 100.2 0 0 0-188.8 0H311.5a61.4 61.4 0 0 0-61.4 61.4v11.6a61.4 61.4 0 0 0 61.4 61.4h347.3a61.4 61.4 0 0 0 61.4-61.4v-11.6a61.4 61.4 0 0 0-61.4-61.4zM464.2 721.7a24.9 24.9 0 0 1-17.8-7.6l-100.6-100.61a25.4 25.4 0 0 1 35.6-35.6l82.8 82.8 183.4-183.4a25.4 25.4 0 1 1 35.6 35.6l-201.2 201.2a25.8 25.8 0 0 1-17.8 7.6z" fill="#FF6E6E" p-id="622"></path></svg>