<svg xmlns="http://www.w3.org/2000/svg" viewBox="0 0 67.78 55.62"><defs><style>.cls-1{fill:#45ff8b;}</style></defs><g id="图层_2" data-name="图层 2"><g id="图层_6" data-name="图层 6"><path class="cls-1" d="M40.81,15.51A23.71,23.71,0,0,1,54.33,9.36c3-.28,8-.76,11.06,2.46,3.58,3.75,2.76,10.62,0,14.75C61.74,32,53.67,34.26,45.72,31.48c.15.27,3.12,5.88,0,11.06-2,3.28-6.4,6.46-11.06,4.92a9.5,9.5,0,0,1-6.14-9.83c-4.07,2.8-8.88,3.33-12.29,1.23a8.11,8.11,0,0,1-3.69-4.92,8.13,8.13,0,0,1,3.69-8.6A8.65,8.65,0,0,1,27.29,27.8a26,26,0,0,1-6.15-13.52C20.81,11.63,18.69,3.22,24.83.76A12,12,0,0,1,38.35,4.44,14.63,14.63,0,0,1,40.81,15.51Z"/><path class="cls-1" d="M25,42.63a26.27,26.27,0,0,1-10.41,9.9A27.49,27.49,0,0,1,0,55.56l.5-3.91a24.35,24.35,0,0,0,13.17-1.06,25,25,0,0,0,11-8.13Z"/></g></g></svg>